Land_normalized_precision_landing08_filtered_grf
version=1
nRows=10
nColumns=37
inDegrees=yes
endheader
time		1_ground_force_vx		1_ground_force_vy		1_ground_force_vz		1_ground_force_px		1_ground_force_py		1_ground_force_pz		1_ground_torque_x		1_ground_torque_y		1_ground_torque_z		2_ground_force_vx		2_ground_force_vy		2_ground_force_vz		2_ground_force_px		2_ground_force_py		2_ground_force_pz		2_ground_torque_x		2_ground_torque_y		2_ground_torque_z		3_ground_force_vx		3_ground_force_vy		3_ground_force_vz		3_ground_force_px		3_ground_force_py		3_ground_force_pz		3_ground_torque_x		3_ground_torque_y		3_ground_torque_z		4_ground_force_vx		4_ground_force_vy		4_ground_force_vz		4_ground_force_px		4_ground_force_py		4_ground_force_pz		4_ground_torque_x		4_ground_torque_y		4_ground_torque_z		
1.999500		8.387685		703.187255		161.357887		0.062641		0.000000		0.213149		0.224896		18.854290		4.326427		37.448959		986.179959		114.100531		-0.139760		0.000000		0.225473		0.935679		24.640148		2.850853		0.640118		-0.234034		0.252541		0.381184		1.275985		1.884158		0.013715		0.005754		0.017297		-1.310289		-0.585101		0.483948		-0.351428		1.268347		1.872072		0.003355		-0.014004		-0.004914		
2.002227		10.133130		700.524407		157.916464		0.062669		0.000000		0.213464		0.275111		19.018671		4.287297		37.129278		999.259841		111.689645		-0.139802		0.000000		0.225847		0.897795		24.162190		2.700687		0.708192		-0.181428		0.217355		0.381165		1.275989		1.884163		0.014653		0.002772		0.018644		-1.369656		-0.531950		0.484478		-0.351468		1.268358		1.872109		0.004338		-0.012589		-0.006581		
2.004955		11.526731		696.635584		154.715912		0.062682		0.000000		0.213710		0.316729		19.141917		4.251229		36.580634		1010.167482		109.788348		-0.139852		0.000000		0.226130		0.859514		23.735274		2.579633		0.766831		-0.106781		0.157640		0.381148		1.275991		1.884163		0.016435		0.000348		0.020810		-1.354111		-0.470158		0.475451		-0.351516		1.268367		1.872148		0.004476		-0.012960		-0.008922		
2.007682		12.571670		691.411666		151.807062		0.062665		0.000000		0.213866		0.349345		19.212972		4.218417		35.702497		1018.574691		108.422582		-0.139895		0.000000		0.226308		0.818446		23.349712		2.485477		0.809189		-0.023847		0.083124		0.381139		1.275987		1.884160		0.018514		-0.001202		0.023467		-1.266560		-0.415642		0.463592		-0.351568		1.268373		1.872191		0.003865		-0.014927		-0.011591		
2.010409		13.291564		684.854848		149.185371		0.062614		0.000000		0.213915		0.372946		19.216236		4.185968		34.423067		1024.269722		107.575168		-0.139917		0.000000		0.226373		0.772721		22.992466		2.414814		0.823728		0.050709		0.007752		0.381135		1.275977		1.884155		0.020254		-0.001662		0.026139		-1.129578		-0.380403		0.450528		-0.351618		1.268378		1.872237		0.002891		-0.017663		-0.014120		
2.013136		13.732667		677.036375		146.828280		0.062528		0.000000		0.213852		0.388470		19.151981		4.153473		32.730537		1027.063904		107.206867		-0.139910		0.000000		0.226330		0.721987		22.655374		2.364811		0.800533		0.103062		-0.055419		0.381138		1.275962		1.884152		0.021200		-0.000952		0.028377		-0.975498		-0.371541		0.431484		-0.351661		1.268381		1.872283		0.001987		-0.020031		-0.016094		
2.015864		13.965205		668.143692		144.695982		0.062404		0.000000		0.213683		0.397923		19.038009		4.122951		30.699278		1026.861336		107.247245		-0.139879		0.000000		0.226189		0.667814		22.337618		2.332980		0.738792		0.127505		-0.097100		0.381145		1.275941		1.884154		0.021262		0.000793		0.029916		-0.839244		-0.389800		0.398236		-0.351691		1.268386		1.872331		0.001443		-0.020994		-0.017301		
2.018591		14.056011		658.474075		142.736318		0.062260		0.000000		0.213439		0.403298		18.893071		4.095419		28.467539		1023.635421		107.603169		-0.139835		0.000000		0.225969		0.613050		22.043958		2.317230		0.650066		0.128014		-0.113623		0.381154		1.275917		1.884159		0.020695		0.003235		0.030735		-0.749940		-0.428388		0.344435		-0.351704		1.268389		1.872376		0.001290		-0.019977		-0.017810		
2.021318		14.053710		648.414959		140.893194		0.062129		0.000000		0.213168		0.405926		18.728731		4.069541		26.200917		1017.441357		108.165321		-0.139793		0.000000		0.225689		0.560889		21.780529		2.315511		0.557730		0.115689		-0.108965		0.381161		1.275892		1.884170		0.019910		0.005903		0.030990		-0.724928		-0.472879		0.270062		-0.351701		1.268395		1.872419		0.001344		-0.017030		-0.017886		
2.024045		13.991890		638.397235		139.121083		0.062042		0.000000		0.212918		0.406643		18.553588		4.043243		24.055613		1008.460959		108.823409		-0.139771		0.000000		0.225369		0.514097		21.552018		2.325687		0.490786		0.102520		-0.094742		0.381161		1.275869		1.884184		0.019217		0.008324		0.030862		-0.765867		-0.504588		0.183085		-0.351683		1.268401		1.872461		0.001359		-0.012764		-0.017821		
